<?xml version="1.0" encoding="UTF-8"?>
<svg id="_レイヤー_1" data-name="レイヤー 1" xmlns="http://www.w3.org/2000/svg" viewBox="0 0 179 320.69">
  <defs>
    <style>
      .cls-1 {
        stroke-width: 3px;
      }

      .cls-1, .cls-2 {
        fill: #fff;
        fill-rule: evenodd;
        stroke: #94662f;
      }

      .cls-2 {
        stroke-width: 5px;
      }
    </style>
  </defs>
  <path id="usagi" class="cls-1" d="m177.5,228.52c0,33.25-8.82,53.66-26.96,65.22,7.65,7.73,11.14,15.59,8.23,20.59-4.53,7.8-22.87,5.69-40.97-4.7-2.28-1.31-4.45-2.69-6.49-4.12-7.25.7-14.53,1.03-21.82,1-5.71,0-11.14-.18-16.27-.53-1.87,1.29-3.84,2.54-5.9,3.73-18.16,10.49-36.58,12.59-41.13,4.7-2.63-4.55-.06-11.43,6.05-18.46-20.7-11.08-30.75-31.94-30.75-67.44,0-47.92,11.21-93.5,54.42-131.99-4.49-9.83-8.97-22.1-9.83-33.22-1.81-23.5,10.12-59.16,18.73-61.24s17.19,2.2,19.65,42.76c.72,12.76-.67,25.54-4.13,37.84,5.72-1.45,11.7-1.53,17.46-.23-3.44-12.3-4.82-25.07-4.11-37.82C96.13,4.12,104.63-.16,113.16,1.92s20.36,37.69,18.56,61.16c-.84,10.92-5.15,22.94-9.52,32.67,43.66,37.87,55.3,84.52,55.3,132.77Z"/>
  <path id="megane" class="cls-2" d="m119.9,177.52c-12.75,0-23.55-9.38-25.34-22h-9.71c-1.99,14-14.95,23.73-28.95,21.75-14-1.99-23.73-14.95-21.75-28.95,1.79-12.62,12.6-22,25.35-22,13.33,0,24.27,11.19,25.48,24.2h9.43c1.21-13.01,12.16-24.2,25.48-24.2,14.14,0,25.6,11.45,25.61,25.59,0,14.14-11.45,25.6-25.59,25.61h-.02Z"/>
</svg>