<?xml version="1.0" encoding="UTF-8"?>
<svg id="_レイヤー_1のコピー" data-name="レイヤー 1のコピー" xmlns="http://www.w3.org/2000/svg" viewBox="0 0 179 320.69">
  <defs>
    <style>
      .cls-1 {
        stroke-width: 2.68px;
      }

      .cls-1, .cls-2 {
        fill: #fff;
        fill-rule: evenodd;
        stroke: #94662f;
      }

      .cls-2 {
        stroke-width: 5px;
      }
    </style>
  </defs>
  <path id="usagi" class="cls-1" d="m177.5,247.1c0,26.44-8.82,42.67-26.96,51.86,7.65,6.15,11.14,12.4,8.23,16.37-4.53,6.2-22.87,4.53-40.97-3.74-2.28-1.04-4.45-2.14-6.49-3.27-7.25.55-14.53.82-21.82.8-5.71,0-11.14-.14-16.27-.42-1.87,1.03-3.84,2.02-5.9,2.97-18.16,8.34-36.58,10.01-41.13,3.74-2.63-3.62-.06-9.09,6.05-14.68-20.7-8.81-30.75-25.4-30.75-53.63,0-38.1,11.21-74.35,54.42-104.95-4.49-7.82-8.97-17.57-9.83-26.42-1.81-18.69,10.12-47.04,18.73-48.69s17.19,1.75,19.65,34c.72,10.14-.67,20.31-4.13,30.09,5.72-1.16,11.7-1.22,17.46-.18-3.44-9.78-4.82-19.94-4.11-30.07,2.44-32.2,10.95-35.61,19.48-33.95s20.36,29.97,18.56,48.63c-.84,8.68-5.15,18.24-9.52,25.98,43.66,30.11,55.3,67.21,55.3,105.57Z"/>
  <path id="megane" class="cls-2" d="m119.9,208.7c-12.75,0-23.55-9.38-25.34-22h-9.71c-1.99,14-14.95,23.73-28.95,21.75-14-1.99-23.73-14.95-21.75-28.95,1.79-12.62,12.6-22,25.35-22,13.33,0,24.27,11.19,25.48,24.2h9.43c1.21-13.01,12.16-24.2,25.48-24.2,14.14,0,25.6,11.45,25.61,25.59,0,14.14-11.45,25.6-25.59,25.61h-.02Z"/>
</svg>