<svg xmlns="http://www.w3.org/2000/svg" width="400" height="400" viewBox="0 0 400 400">
  <defs>
    <style>
      .cls-1 {
        fill: #94662f;
      }

      .cls-2 {
        fill: #fff;
      }

      .cls-2, .cls-3 {
        fill-rule: evenodd;
      }

      .cls-3 {
        fill: none;
        stroke: #94662f;
        stroke-width: 5px;
      }
    </style>
  </defs>
  <circle id="楕円形_1" data-name="楕円形 1" class="cls-1" cx="201" cy="205" r="174"/>
  <path id="シェイプ_1" data-name="シェイプ 1" class="cls-2" d="M289.5,297c0,59.647-28.353,78-88,78s-88-18.353-88-78c0-47.92,11.213-93.5,54.415-131.985-4.487-9.833-8.974-22.1-9.833-33.222-1.814-23.5,10.12-59.156,18.729-61.24s17.19,2.2,19.655,42.756a115.591,115.591,0,0,1-4.135,37.841,37.365,37.365,0,0,1,17.457-.226,116.32,116.32,0,0,1-4.106-37.822c2.444-40.5,10.946-44.78,19.478-42.7s20.357,37.693,18.56,61.159c-0.837,10.921-5.147,22.94-9.517,32.673C277.862,202.1,289.5,248.754,289.5,297Z"/>
  <path id="長方形_1" data-name="長方形 1" class="cls-3" d="M171.5,194.8a25.6,25.6,0,1,1-25.6,25.6A25.6,25.6,0,0,1,171.5,194.8Zm60.4,0a25.6,25.6,0,1,1-25.6,25.6A25.6,25.6,0,0,1,231.9,194.8Z"/>
  <rect id="長方形_2" data-name="長方形 2" class="cls-1" x="195" y="217" width="12" height="7"/>
</svg>
