<svg width="50" height="45" viewBox="0 0 50 45" fill="none" xmlns="http://www.w3.org/2000/svg">
<path d="M45 0C46.3261 0 47.5978 0.526784 48.5355 1.46447C49.4732 2.40215 50 3.67392 50 5V40C50 41.3261 49.4732 42.5979 48.5355 43.5355C47.5978 44.4732 46.3261 45 45 45H5C3.67392 45 2.40215 44.4732 1.46447 43.5355C0.526784 42.5979 0 41.3261 0 40V5C0 3.67392 0.526784 2.40215 1.46447 1.46447C2.40215 0.526784 3.67392 0 5 0H45ZM45 5H5V30.25L17.4875 17.765C17.7777 17.4747 18.1222 17.2445 18.5014 17.0874C18.8806 16.9303 19.287 16.8494 19.6975 16.8494C20.1079 16.8494 20.5144 16.9303 20.8936 17.0874C21.2728 17.2445 21.6173 17.4747 21.9075 17.765L32.07 27.93L35.165 24.835C35.4552 24.5447 35.7997 24.3145 36.1789 24.1574C36.5581 24.0003 36.9646 23.9194 37.375 23.9194C37.7854 23.9194 38.1919 24.0003 38.5711 24.1574C38.9503 24.3145 39.2948 24.5447 39.585 24.835L45 30.2525V5ZM33.75 10C34.7446 10 35.6984 10.3951 36.4016 11.0983C37.1049 11.8016 37.5 12.7554 37.5 13.75C37.5 14.7446 37.1049 15.6984 36.4016 16.4017C35.6984 17.1049 34.7446 17.5 33.75 17.5C32.7554 17.5 31.8016 17.1049 31.0983 16.4017C30.3951 15.6984 30 14.7446 30 13.75C30 12.7554 30.3951 11.8016 31.0983 11.0983C31.8016 10.3951 32.7554 10 33.75 10Z" fill="#94662F"/>
</svg>
