<svg width="31" height="39" viewBox="0 0 31 39" fill="none" xmlns="http://www.w3.org/2000/svg">
<path d="M19.25 0.75H4.25C3.25544 0.75 2.30161 1.14509 1.59835 1.84835C0.895088 2.55161 0.5 3.50544 0.5 4.5V34.5C0.5 35.4946 0.895088 36.4484 1.59835 37.1516C2.30161 37.8549 3.25544 38.25 4.25 38.25H26.75C27.7446 38.25 28.6984 37.8549 29.4016 37.1516C30.1049 36.4484 30.5 35.4946 30.5 34.5V12L19.25 0.75ZM17.375 4.5L26.75 13.875H17.375V4.5ZM8.99563 30.75H7.57062V28.1044H5.21562V30.75H3.7775V24.4256H5.21562V26.8556H7.5725V24.4256H8.9975L8.99563 30.75ZM14.6206 25.6275H12.8937V30.75H11.4575V25.6275H9.76062V24.4256H14.6206V25.6275ZM20.7838 30.75L20.69 28.3294C20.6581 27.57 20.6337 26.6494 20.6337 25.7287H20.6038C20.4088 26.5369 20.1444 27.4369 19.9006 28.1794L19.1319 30.6469H18.0125L17.3394 28.1963C17.1115 27.3827 16.9201 26.5594 16.7656 25.7287H16.745C16.7056 26.5837 16.6812 27.5588 16.6344 28.3463L16.5219 30.75H15.2L15.605 24.4256H17.5081L18.1287 26.5369C18.3238 27.27 18.5225 28.0575 18.6612 28.7981H18.6931C18.8713 28.065 19.085 27.2306 19.2931 26.5275L19.9662 24.4256H21.8337L22.1806 30.75H20.7838ZM27.2225 30.75H23.27V24.4256H24.7081V29.5481H27.2244L27.2225 30.75Z" fill="#94662F"/>
</svg>
