<svg width="31" height="39" viewBox="0 0 31 39" fill="none" xmlns="http://www.w3.org/2000/svg">
<path d="M19.25 0.75H4.25C3.25544 0.75 2.30161 1.14509 1.59835 1.84835C0.895088 2.55161 0.5 3.50544 0.5 4.5V34.5C0.5 35.4946 0.895088 36.4484 1.59835 37.1516C2.30161 37.8549 3.25544 38.25 4.25 38.25H26.75C27.7446 38.25 28.6984 37.8549 29.4016 37.1516C30.1049 36.4484 30.5 35.4946 30.5 34.5V12L19.25 0.75ZM10.7113 29.6475C11.2269 29.6475 11.8006 29.5331 12.14 29.4L12.3987 30.7369C12.0837 30.8944 11.375 31.0631 10.4544 31.0631C7.835 31.0631 6.485 29.4338 6.485 27.2738C6.48312 24.69 8.32812 23.25 10.6212 23.25C11.51 23.25 12.1831 23.43 12.4869 23.5875L12.1381 24.9487C11.6815 24.7608 11.1919 24.6658 10.6981 24.6694C9.33687 24.6694 8.27938 25.4906 8.27938 27.1763C8.28125 28.6912 9.18313 29.6475 10.7113 29.6475ZM15.3819 31.0631C14.5175 31.0631 13.6625 30.84 13.235 30.6038L13.5837 29.1863C14.045 29.4225 14.7537 29.6587 15.485 29.6587C16.2725 29.6587 16.6887 29.3325 16.6887 28.8375C16.6887 28.365 16.3288 28.095 15.4175 27.7687C14.1575 27.33 13.3381 26.6344 13.3381 25.5319C13.3381 24.24 14.4163 23.25 16.205 23.25C17.0581 23.25 17.6881 23.43 18.1381 23.6306L17.7556 25.0144C17.2613 24.7749 16.7187 24.6517 16.1694 24.6544C15.4269 24.6544 15.0688 24.9937 15.0688 25.3856C15.0688 25.8694 15.4963 26.0831 16.4731 26.4544C17.8119 26.9494 18.4419 27.6469 18.4419 28.7137C18.44 29.985 17.4613 31.0631 15.3819 31.0631ZM21.4569 31.0631C20.5925 31.0631 19.7375 30.84 19.31 30.6038L19.6588 29.1863C20.12 29.4225 20.8288 29.6587 21.56 29.6587C22.3475 29.6587 22.7638 29.3325 22.7638 28.8375C22.7638 28.365 22.4037 28.095 21.4925 27.7687C20.2325 27.33 19.4131 26.6344 19.4131 25.5319C19.4131 24.24 20.4913 23.25 22.28 23.25C23.1331 23.25 23.7631 23.43 24.2131 23.6306L23.8306 25.0144C23.3363 24.7749 22.7937 24.6517 22.2444 24.6544C21.5019 24.6544 21.1438 24.9937 21.1438 25.3856C21.1438 25.8694 21.5712 26.0831 22.5481 26.4544C23.8869 26.9494 24.5169 27.6469 24.5169 28.7137C24.5169 29.985 23.5362 31.0631 21.4569 31.0631ZM19.25 13.875H17.375V4.5L26.75 13.875H19.25Z" fill="#94662F"/>
</svg>
