<svg width="47" height="50" viewBox="0 0 47 50" fill="none" xmlns="http://www.w3.org/2000/svg">
<path d="M27 15.3334V0.833374H12.5C11.2181 0.833374 9.98875 1.3426 9.08232 2.24902C8.1759 3.15545 7.66667 4.38483 7.66667 5.66671V29.8769C8.53059 29.752 9.412 29.8974 10.19 30.2934C10.9679 30.6893 11.6043 31.3162 12.0118 32.0881C12.6777 31.3757 13.4831 30.8079 14.3778 30.4201C15.2724 30.0322 16.2374 29.8325 17.2125 29.8334H17.4542C19.3449 29.8334 21.1583 30.5845 22.4953 31.9215C23.8322 33.2584 24.5833 35.0718 24.5833 36.9625V37.0834C24.5833 38.1709 24.1725 39.1617 23.4958 39.9109C24.1918 40.9718 24.5833 42.2309 24.5833 43.5528V44.4542C24.5833 46.2595 23.9115 47.91 22.8047 49.1667H41.5C42.7819 49.1667 44.0113 48.6575 44.9177 47.7511C45.8241 46.8446 46.3333 45.6153 46.3333 44.3334V20.1667H31.8333C30.5515 20.1667 29.3221 19.6575 28.4157 18.7511C27.5092 17.8446 27 16.6153 27 15.3334ZM30.625 15.3334V2.04171L45.125 16.5417H31.8333C31.5129 16.5417 31.2055 16.4144 30.9789 16.1878C30.7523 15.9612 30.625 15.6538 30.625 15.3334ZM8.27084 32.25C8.75154 32.25 9.21256 32.441 9.55247 32.7809C9.89238 33.1208 10.0833 33.5818 10.0833 34.0625V44.3334C10.0833 45.6153 9.57411 46.8446 8.66769 47.7511C7.76126 48.6575 6.53188 49.1667 5.25 49.1667C3.96813 49.1667 2.73875 48.6575 1.83232 47.7511C0.925897 46.8446 0.416672 45.6153 0.416672 44.3334V43.7292C0.416672 43.2485 0.607631 42.7875 0.947541 42.4476C1.28745 42.1077 1.74847 41.9167 2.22917 41.9167C2.70988 41.9167 3.17089 42.1077 3.5108 42.4476C3.85071 42.7875 4.04167 43.2485 4.04167 43.7292V44.3334C4.04167 44.6538 4.16898 44.9612 4.39558 45.1878C4.62219 45.4144 4.92953 45.5417 5.25 45.5417C5.57047 45.5417 5.87782 45.4144 6.10442 45.1878C6.33103 44.9612 6.45834 44.6538 6.45834 44.3334V34.0625C6.45834 33.5818 6.6493 33.1208 6.98921 32.7809C7.32912 32.441 7.79013 32.25 8.27084 32.25ZM17.2125 32.25C15.9627 32.25 14.764 32.7465 13.8803 33.6303C12.9965 34.5141 12.5 35.7127 12.5 36.9625V37.528C12.5 39.0119 13.2806 40.3894 14.5542 41.153L18.2493 43.3715C18.3384 43.4253 18.4122 43.5011 18.4634 43.5917C18.5147 43.6823 18.5416 43.7846 18.5417 43.8887V44.4542C18.5417 44.7426 18.4271 45.0192 18.2232 45.2232C18.0192 45.4271 17.7426 45.5417 17.4542 45.5417H17.2125C16.9241 45.5417 16.6475 45.4271 16.4435 45.2232C16.2396 45.0192 16.125 44.7426 16.125 44.4542V44.3334C16.125 43.8527 15.934 43.3917 15.5941 43.0517C15.2542 42.7118 14.7932 42.5209 14.3125 42.5209C13.8318 42.5209 13.3708 42.7118 13.0309 43.0517C12.691 43.3917 12.5 43.8527 12.5 44.3334V44.4542C12.5 45.704 12.9965 46.9027 13.8803 47.7864C14.764 48.6702 15.9627 49.1667 17.2125 49.1667H17.4542C18.704 49.1667 19.9026 48.6702 20.7864 47.7864C21.6702 46.9027 22.1667 45.704 22.1667 44.4542V43.8887C22.1663 43.1586 21.9769 42.4409 21.617 41.8057C21.257 41.1704 20.7387 40.6392 20.1125 40.2637L16.4174 38.0452C16.3283 37.9915 16.2545 37.9157 16.2033 37.8251C16.152 37.7344 16.1251 37.6321 16.125 37.528V36.9625C16.125 36.6741 16.2396 36.3975 16.4435 36.1936C16.6475 35.9896 16.9241 35.875 17.2125 35.875H17.4542C17.7426 35.875 18.0192 35.9896 18.2232 36.1936C18.4271 36.3975 18.5417 36.6741 18.5417 36.9625V37.0834C18.5417 37.5641 18.7326 38.0251 19.0725 38.365C19.4125 38.7049 19.8735 38.8959 20.3542 38.8959C20.8349 38.8959 21.2959 38.7049 21.6358 38.365C21.9757 38.0251 22.1667 37.5641 22.1667 37.0834V36.9625C22.1667 35.7127 21.6702 34.5141 20.7864 33.6303C19.9026 32.7465 18.704 32.25 17.4542 32.25H17.2125Z" fill="#94662F"/>
</svg>
