<svg width="60" height="60" viewBox="0 0 60 60" fill="none" xmlns="http://www.w3.org/2000/svg">
<path d="M57.1579 13.4731C56.0605 14.6063 54.9955 15.7062 54.9632 16.806C54.8664 17.8725 55.9637 18.9724 56.9965 20.0056C58.5457 21.672 60.0626 23.1718 59.998 24.8049C59.9335 26.438 58.2875 28.1378 56.6415 29.8042L43.3122 43.6023L38.7292 38.8696L52.4458 24.7382L49.3475 21.5387L44.7645 26.238L32.6616 13.7398L45.055 0.974864C46.3137 -0.324955 48.4115 -0.324955 49.6057 0.974864L57.1579 8.77378C58.4166 10.0069 58.4166 12.1733 57.1579 13.4731ZM0 47.5017L30.8543 15.6062L42.9572 28.1044L12.1029 60H0V47.5017Z" fill="#94662F"/>
</svg>
